<?xml version="1.0" encoding="utf-8"?>
<!-- Generator: Adobe Illustrator 19.0.0, SVG Export Plug-In . SVG Version: 6.00 Build 0)  -->
<svg version="1.1" id="圖層_1" xmlns="http://www.w3.org/2000/svg" xmlns:xlink="http://www.w3.org/1999/xlink" x="0px" y="0px"
	 viewBox="0 0 100 100" style="enable-background:new 0 0 100 100;" xml:space="preserve">
<style type="text/css">
	.st0{fill:#FBB03B;}
	.st1{fill-rule:evenodd;clip-rule:evenodd;fill:#FFFFFF;}
</style>
<g id="XMLID_1061_">
	<rect id="XMLID_1069_" class="st0" width="100" height="100"/>
	<path id="XMLID_1062_" class="st1" d="M34.2,48c-1.7,0-3,0.7-3,2c0,1.3,1.4,2,3,2h20.5c1.7,0,3-0.7,3-2c0-1.3-1.4-2-3-2H34.2z
		 M65.8,38c1.7,0,3-0.7,3-2c0-1.3-1.4-2-3-2H34.2c-1.7,0-3,0.7-3,2c0,1.3,1.4,2,3,2H65.8z M34.2,62c-1.7,0-3,0.7-3,2
		c0,1.3,1.4,2,3,2h27.6c1.7,0,3-0.7,3-2c0-1.3-1.4-2-3-2H34.2z"/>
</g>
</svg>
